# xmcd CD database file
#
# Track frame offsets:
#	150
#	14399
#	32364
#	43831
#	61880
#	75952
#	101424
#	118559
#	135558
#	154253
#	168790
#	183809
#
# Disc length: 2643 seconds
#
# Revision: 0
# Processed by: cddbd v1.5.1PL2 Copyright (c) Steve Scherf et al.
# Submitted via: CDex 1.51
#
DISCID=830a510c
DTITLE=Emmylou Harris - Elite Hotel
DYEAR=1975
DGENRE=Country
TTITLE0=Amarillo
TTITLE1=Together Again
TTITLE2=Feelin' Single, Seein' Double
TTITLE3=Sin City
TTITLE4=One of These Days
TTITLE5=Till I Gain Control Again
TTITLE6=Here, There and Everywhere
TTITLE7=Ooh Las Vegas
TTITLE8=Sweet Dreams
TTITLE9=Jambalaya (On the Bayou)
TTITLE10=Satan's Jeweled Crown
TTITLE11=Wheels
EXTD=YEAR: 1975
EXTT0=
EXTT1=
EXTT2=
EXTT3=
EXTT4=
EXTT5=
EXTT6=
EXTT7=
EXTT8=
EXTT9=
EXTT10=
EXTT11=
PLAYORDER=
